PathFileType	4	(X/Y/Z)	14_1_20_p0_0-149_filt_butterworth.trc
DataRate	CameraRate	NumFrames	NumMarkers	Units	OrigDataRate	OrigDataStartFrame	OrigNumFrames
55.0	55.0	5	27	m	55.0	0	149
Frame#	Time	RHip			RKnee			RAnkle			RBigToe			RSmallToe			RHeel			LHip			LKnee			LAnkle			LBigToe			LSmallToe			LHeel			Neck			Head			Nose			RShoulder			RElbow			RWrist			RThumb			RIndex			RPinky			LShoulder			LElbow			LWrist			LThumb			LIndex			LPinky			
		X1	Y1	Z1	X2	Y2	Z2	X3	Y3	Z3	X4	Y4	Z4	X5	Y5	Z5	X6	Y6	Z6	X7	Y7	Z7	X8	Y8	Z8	X9	Y9	Z9	X10	Y10	Z10	X11	Y11	Z11	X12	Y12	Z12	X13	Y13	Z13	X14	Y14	Z14	X15	Y15	Z15	X16	Y16	Z16	X17	Y17	Z17	X18	Y18	Z18	X19	Y19	Z19	X20	Y20	Z20	X21	Y21	Z21	X22	Y22	Z22	X23	Y23	Z23	X24	Y24	Z24	X25	Y25	Z25	X26	Y26	Z26	X27	Y27	Z27	
0	0.0	0.311439251145351	0.6563593556517114	0.313314833767103	0.32676770284723416	0.7908966661090343	0.7132978261254885	0.3093220975679855	0.8918963571584557	1.1062295055745428	0.255877862508315	0.6590865200315416	1.1501361654035602	0.33191946482546353	0.7000211450685487	1.1544957817352397	0.284916330316104	0.9961688322668223	1.164507773658228	0.0918469096787739	0.6748543787638661	0.32863504586468406	0.10867265214223693	0.7880268888810786	0.6941903707829514	0.09849573617890667	0.8893752646270319	1.0889920332253826	0.10568730533680332	0.6959092832690834	1.1520968897865755	0.05487556368037275	0.7581412770634455	1.161523550196243	0.11352422007628366	0.9605895843697493	1.1476216197177345	0.19031189902566165	0.5181913859870718	-0.21263129192973898	0.20797750131554146	0.41519704902890886	-0.446706586566243	0.1908423900595781	0.3538669889089488	-0.30622739634446294	0.33428228329808485	0.5043288946280453	-0.12782889758996385	0.3819067449579042	0.5454012920968326	0.14390082166323104	0.27729039079502066	0.47047319538950705	0.32812220709895534	0.1874669953305778	0.49287864955843147	0.4015867288236565	0.19102184710868053	0.49486385096432683	0.4234712479644619	0.19947097670958885	0.49499847154051263	0.43067944685584075	0.037518193280795614	0.5294321739987352	-0.13044554941248765	0.009075126663385887	0.553685196678892	0.1416893421931279	0.1519390833405768	0.5064570735423712	0.3303323913097742	0.24598940036132325	0.4302298797035763	0.3630289641606791	0.25546118158198117	0.4338078826506223	0.3995098129633343	0.20536918899214912	0.49783624451339104	0.4315386636201813
1	0.0181818181818181	0.31196465279242747	0.6561833451331058	0.31137990561254014	0.32643677590436054	0.7904072346860543	0.7120740487981823	0.3064522655384309	0.902276596079664	1.1065812647067217	0.2537537788008499	0.6706532207505017	1.1554882423754202	0.32756291026076134	0.7054811327929518	1.1562511996320683	0.28745673058059795	1.00509607464185	1.1642343449423946	0.092365207910311	0.6755046576441257	0.3310770049374021	0.10873259676689498	0.7881202840831524	0.6941357291660851	0.09904638608485007	0.8887144624393064	1.0832804633202986	0.10438670958684554	0.6950212625703468	1.1486394876504606	0.05508995511466596	0.7577033995821728	1.1600966880780257	0.11973296948414147	0.965397079551456	1.1463062816659677	0.19019594348779512	0.51797424891929	-0.21465960451029675	0.2081630759770095	0.41618643114852294	-0.4425683668309714	0.1888659511259344	0.36079152606518344	-0.30696989009205705	0.33544301477356064	0.5047346521066582	-0.12789551678821282	0.3846607414546631	0.552505919136409	0.1412346850301398	0.2767942249137996	0.4704319879511752	0.32796857799268464	0.19194105339982534	0.4921444824489534	0.4040050692548749	0.1920724131677263	0.49333564560184673	0.42312435568393586	0.19638342529980307	0.49612370942171746	0.4309652691777548	0.03625243564486433	0.5251529697916846	-0.13002404222257286	0.008717514912386983	0.5541630493397101	0.14056691033907862	0.14933787186894734	0.5123047268512075	0.3286027123634054	0.24244483569997574	0.4268525184922018	0.3553277339608265	0.25184377017487947	0.43862026128580645	0.4000249528793398	0.20220566357929878	0.49675028030668733	0.43148999824467477
2	0.0363636363636363	0.312262865289044	0.6560650373684627	0.3111216844176595	0.32633642440286786	0.7906627162777229	0.7123184868472517	0.3048596171454325	0.9081808875292346	1.1068453246494472	0.2525760433817256	0.6770852480500067	1.1583199288000192	0.3260220203880775	0.7112439018171852	1.1581896229103776	0.28888886029087696	1.0101509221275953	1.164130530130528	0.09218275566446058	0.6756498980060778	0.33304133512577727	0.10876848354333865	0.7882754736304447	0.6945756115978279	0.09936480043184803	0.8883719250174925	1.080129449860992	0.10349786790950272	0.6945495922868765	1.14706788160934	0.05523653122787039	0.7576372517041785	1.1591495830428546	0.12319054993826173	0.9676341354610853	1.1468373311537456	0.19013863636139605	0.5178847054295802	-0.21507763512977818	0.20826407428818183	0.4167513804654	-0.44025861244806047	0.18740322146649363	0.3624602729470202	-0.3071166434043819	0.33589234087583447	0.5048703210915073	-0.12790220787939843	0.3864418486651438	0.5574807568310575	0.13866473984628092	0.2769772991636665	0.4704482703242138	0.32792219274000717	0.19609918485620803	0.4918325090574324	0.4063015016875341	0.1931080542975725	0.49260310286217845	0.42369315410569763	0.1940049004404125	0.49179610045756866	0.43006384984498797	0.03532286728542565	0.522122533472769	-0.12972897726878163	0.006872551840500753	0.5570755685258443	0.14136377570956	0.14635636269654187	0.5089568283797186	0.32820560918536484	0.24002197373198036	0.42673856002587124	0.35011253032735357	0.24940260696786556	0.44126452568116814	0.40224652896195456	0.2014291928691678	0.4965101832452394	0.4314210897964774
3	0.0545454545454545	0.3125094099365698	0.6561795770944592	0.31236771755759657	0.3263694636316897	0.7912912014054285	0.7134024716834046	0.30464325700644945	0.9097962376884833	1.1074518030235014	0.252197560997043	0.6782206957383563	1.1583428141187475	0.326969714980952	0.716407820052917	1.160042585714599	0.2893177784241628	1.0115589053265461	1.1647366771537704	0.09104330329623317	0.675203916428773	0.3341583861469441	0.10876931456764617	0.7884882524462866	0.6958205871637435	0.09944784167288773	0.8883237443457535	1.0795194980202525	0.10263699244223924	0.6945152805474853	1.1463959201889136	0.055394902251243786	0.7576409616800867	1.1584431359413672	0.12468344275814286	0.9659652317869712	1.147314274844593	0.1901368664578743	0.5179250640915198	-0.2140617431909671	0.20826321874483789	0.41689833802834214	-0.4397864947215153	0.18620819250020249	0.35943239471357	-0.3067333131150766	0.3354000005041172	0.5046576913423301	-0.12785779129032862	0.38766893727691487	0.5611460736734002	0.13516113868224175	0.2789577580698723	0.47059561760630814	0.3282825775280565	0.19942947042718243	0.4918004205551216	0.40816963404396733	0.19362838336275073	0.4925303187559805	0.42468822040922416	0.19304976643880592	0.48418969925657596	0.4279716605749706	0.03451620730430743	0.5195409189335547	-0.1298073624324071	0.003945084864982077	0.5618187303801582	0.14416438141699317	0.14220625998918227	0.49922421380981735	0.32933968338124575	0.23902399814994185	0.42846860018975175	0.3480392822231923	0.24762200397349168	0.4426473011853848	0.4052864421135736	0.2031245212641103	0.4975309788548043	0.4314845991284301
4	0.0727272727272727	0.31324169370708926	0.6575701453913143	0.314038295206861	0.3263458970720742	0.7914840517090019	0.7140865455580789	0.30513617860539716	0.9100283507681406	1.1089217289606066	0.25197887878737363	0.6770438685872432	1.1572270400107743	0.3282416686268209	0.7193898017429449	1.1612127340132108	0.28952211542384265	1.0118893071402222	1.166512566693424	0.08962858504236687	0.674303216020959	0.3340868325572045	0.1087413322944642	0.788590662284737	0.6974535298509904	0.09943223566170731	0.8883663475459573	1.0798807333562048	0.10174679344267931	0.6946053515428181	1.145239883207682	0.055562676348695966	0.7574191753262536	1.1578758627009869	0.12593066090784993	0.9626944855650454	1.145679645380053	0.1901502697445545	0.5180114014515326	-0.21294005515994413	0.20819095164128013	0.4169614741244194	-0.4400567937077919	0.1850405923843679	0.35600235634633515	-0.3063064254620508	0.33459654330182925	0.5043422334999014	-0.12781045047928344	0.38897624728359237	0.5645457552780577	0.13046072779273482	0.28328729102435585	0.4708535220722024	0.32942559364061696	0.2012791591473983	0.4916689091559028	0.4090188136065276	0.19325332829747355	0.49258361388693134	0.4249563298119408	0.19322552408563848	0.47872221270218157	0.42578597554575925	0.03379286140066288	0.5171175281220283	-0.13055537647337992	0.001596457745683557	0.5655764144478083	0.14732564362951062	0.1371918739091341	0.4902895597926552	0.3308081701938503	0.23877867420894902	0.4293769663626769	0.34806039105409203	0.2449971790111098	0.4429398185474486	0.40701259687810537	0.2052720615796891	0.4990672648653275	0.4319679671437784
